<?xml version="1.0" encoding="UTF-8"?>

<svg xmlns="http://www.w3.org/2000/svg" xmlns:xlink="http://www.w3.org/1999/xlink" width="124" height="124" viewBox="0 0 124 124">
 <g id="candle" data-name="camdle" >
 
		<svg class="candle" viewBox="-33 114 293.46 300.973">
			<path id="candle" d="M 5.025599956512451 414.7695007324219 C -0.9990000128746033 414.4653015136719 -6.642000198364258 412.9326171875 -11.74680042266846 410.2137145996094 C -16.23060035705566 407.8251037597656 -20.23019981384277 404.5707092285156 -23.63580131530762 400.5396118164062 C -26.59950065612793 397.0314025878906 -29.04210090637207 392.9814147949219 -30.7007999420166 388.8269958496094 C -32.2047004699707 385.0578002929688 -33.02099990844727 381.2669982910156 -32.9994010925293 378.1539001464844 C -32.89049911499023 377.6967163085938 -32.70960235595703 341.0631103515625 -32.64749908447266 306.8856201171875 C -32.60790252685547 285.6239929199219 -32.56470108032227 236.0889129638672 -32.99760055541992 235.3283996582031 C -32.80319976806641 235.489501953125 -19.24650001525879 235.5678100585938 8.448300361633301 235.5678100585938 C 34.41318511962891 235.5678100585938 69.85775756835938 235.4991607666016 108.0108032226562 235.4132995605469 L 108.0108032226562 229.8924102783203 C 97.73910522460938 227.9114990234375 91.09799957275391 223.2117004394531 88.24320220947266 215.8866119384766 C 86.30730438232422 210.92041015625 86.58810424804688 205.8399047851562 87.16590118408203 202.4532012939453 C 87.83730316162109 198.5084991455078 89.12789916992188 195.5502014160156 89.78850555419922 194.7933044433594 L 90.18000030517578 194.3460083007812 L 90.07199859619141 194.2812042236328 C 92.12580108642578 190.9925994873047 108.7892990112305 167.4954071044922 112.5945053100586 162.1457977294922 C 123.1065063476562 176.7680969238281 135.3303070068359 193.7943115234375 135.9324035644531 194.6934051513672 L 135.9522094726562 194.7429046630859 L 136.0205993652344 194.8131103515625 C 136.5227966308594 195.3297119140625 137.6658020019531 198.3618011474609 138.1545104980469 202.5630035400391 C 138.5702972412109 206.1486053466797 138.63330078125 211.5018005371094 136.5722961425781 216.6453094482422 C 134.8299102783203 220.9959106445312 131.912109375 224.3736114501953 127.8990020751953 226.6856994628906 C 125.4330062866211 228.1068115234375 122.5223999023438 229.1445007324219 119.2005004882812 229.7907104492188 L 119.2005004882812 235.3878479003906 C 121.9250717163086 235.381591796875 124.6632461547852 235.3752746582031 127.4057998657227 235.3689117431641 L 134.1233978271484 235.3536071777344 L 134.1513061523438 235.3536071777344 C 174.8115081787109 235.2591094970703 213.2172088623047 235.1699981689453 236.7999114990234 235.1699981689453 C 252.7182006835938 235.1699981689453 260.4573059082031 235.2114105224609 260.4599914550781 235.2951049804688 C 260.4599914550781 235.3050079345703 260.3619079589844 235.3149108886719 260.1693115234375 235.3247985839844 C 259.6347045898438 279.2376098632812 259.9947204589844 380.1069030761719 260.1683959960938 380.2824096679688 C 259.9398193359375 386.8785095214844 257.7149963378906 392.7960205078125 253.5543060302734 397.8711242675781 C 250.2252044677734 401.9301147460938 245.6585998535156 405.4626159667969 239.9795989990234 408.3705139160156 C 234.927001953125 410.9571228027344 229.910400390625 412.5591125488281 226.5930023193359 413.4474182128906 C 222.9795074462891 414.4158020019531 220.5657043457031 414.7668151855469 220.5423126220703 414.7695007324219 C 219.5901031494141 414.772216796875 124.6122055053711 414.972900390625 61.10280227661133 414.972900390625 C 24.02729988098145 414.972900390625 5.1596999168396 414.9045104980469 5.025599956512451 414.7695007324219 Z M -12.19950008392334 250.6293029785156 C -11.82690048217773 251.1063079833984 -11.86380004882812 282.3012084960938 -11.8971004486084 295.6905212402344 C -11.95110034942627 317.2122192382812 -12.10770034790039 340.2819213867188 -12.20130062103271 340.57080078125 C -12.22020053863525 342.531005859375 -11.51550006866455 344.9178161621094 -10.21770000457764 347.2920227050781 C -8.78849983215332 349.9074096679688 -6.680700302124023 352.4580078125 -4.123800277709961 354.6683959960938 C -1.186200022697449 357.2064208984375 2.264400005340576 359.2557067871094 6.1326003074646 360.7596130371094 C 10.53450012207031 362.4723205566406 15.40260028839111 363.4371032714844 20.60099983215332 363.6288146972656 C 20.71710014343262 363.7142944335938 36.99270248413086 363.7566223144531 68.97689819335938 363.7566223144531 C 116.6399993896484 363.7566223144531 185.5953063964844 363.6603088378906 205.5942077636719 363.630615234375 L 206.5167083740234 363.6288146972656 C 206.6004028320312 363.6198120117188 215.0091094970703 362.6910095214844 223.2846069335938 359.5986022949219 C 228.1833038330078 357.7680053710938 232.1226043701172 355.5440979003906 234.9945068359375 352.9872131347656 C 238.5846099853516 349.7913208007812 240.5043029785156 346.0644226074219 240.7005004882812 341.9118041992188 C 240.5511016845703 341.7606201171875 240.2415008544922 278.1513061523438 240.7014007568359 250.6257019042969 C 240.8643035888672 250.6194000244141 240.9480133056641 250.6131134033203 240.9515991210938 250.6068115234375 C 240.9201049804688 250.5546112060547 234.2628021240234 250.5285034179688 220.5971984863281 250.5285034179688 C 199.6289978027344 250.5285034179688 164.0043029785156 250.5897064208984 132.5736083984375 250.6428070068359 L 126.2385025024414 250.6536102294922 C 123.8842468261719 250.6575927734375 121.539192199707 250.6615447998047 119.2005004882812 250.6654663085938 L 119.2005004882812 261.0374755859375 C 121.119026184082 261.0346069335938 123.0527191162109 261.03173828125 124.9965057373047 261.02880859375 L 130.7916107177734 261.0198059082031 L 130.8411102294922 261.0198059082031 L 130.9608001708984 261.0198059082031 C 162.5220031738281 260.9721069335938 192.3327026367188 260.9270935058594 210.693603515625 260.9270935058594 C 223.1027984619141 260.9270935058594 229.1526031494141 260.9486999511719 229.1867980957031 260.9909973144531 C 229.1850128173828 260.9937133789062 229.1697082519531 260.9991149902344 228.9591064453125 261.0063171386719 C 228.5406036376953 283.4352111816406 228.8232116699219 335.0754089355469 228.9591064453125 335.1780090332031 C 228.7799987792969 338.5530090332031 227.034912109375 341.5805969238281 223.7742004394531 344.1770935058594 C 221.1669006347656 346.25341796875 217.5876007080078 348.0615234375 213.1352996826172 349.5491943359375 C 205.5816040039062 352.0736999511719 197.9766082763672 352.8162231445312 197.9010009765625 352.8233947753906 L 197.8848114013672 352.8233947753906 C 197.162109375 352.8251953125 122.5080032348633 352.9277954101562 72.94049835205078 352.9277954101562 C 43.8822021484375 352.9277954101562 29.09520149230957 352.8927001953125 28.98900032043457 352.8233947753906 C 17.72999954223633 352.4526062011719 10.55880069732666 348.6600036621094 6.525900363922119 345.5424194335938 C 2.029500007629395 342.0684204101562 -0.8505000472068787 337.5729064941406 -0.8127000331878662 334.0890197753906 C -0.7281000018119812 333.8568115234375 -0.5859000086784363 315.1125183105469 -0.5364000201225281 297.6219177246094 C -0.5067000389099121 286.7427062988281 -0.4742999970912933 261.39599609375 -0.8109000325202942 261.0090026855469 C -0.6309000253677368 261.0909118652344 10.01160049438477 261.1304931640625 31.72500038146973 261.1304931640625 C 51.52304077148438 261.1304931640625 77.90304565429688 261.0977478027344 108.0108032226562 261.0539855957031 L 108.0108032226562 250.6839904785156 C 75.51969146728516 250.7370300292969 45.44268035888672 250.7787017822266 23.58990097045898 250.7787017822266 C -0.2952000200748444 250.7787017822266 -12.00240039825439 250.7301025390625 -12.19860076904297 250.6284027099609 Z M 66.67919921875 229.2489013671875 C 64.87830352783203 225.9549102783203 62.38890075683594 220.6557006835938 60.7572021484375 214.1172027587891 C 58.92480087280273 206.7732086181641 58.52610015869141 199.3950042724609 59.57279968261719 192.1869049072266 C 60.88140106201172 183.1752014160156 64.46610260009766 174.4002075195312 70.2279052734375 166.1049041748047 C 71.05410003662109 165.0924072265625 80.53110504150391 152.6049041748047 87.75 143.0370025634766 C 94.26869964599609 134.3970031738281 105.3747024536133 119.6208038330078 106.5195007324219 117.7452011108398 C 107.9711990356445 115.3656005859375 110.1303024291992 114.0003051757812 112.4424057006836 114.0003051757812 C 114.7896041870117 114.0003051757812 116.9136047363281 115.4169006347656 117.9873046875 117.6975021362305 L 118.0107040405273 117.7470016479492 L 118.0431060791016 117.789306640625 C 119.1816024780273 119.2707061767578 121.5378036499023 122.2029037475586 124.5204010009766 125.9145050048828 C 134.2458038330078 138.0195007324219 150.4925994873047 158.2407073974609 154.9853973388672 165.9537048339844 C 155.0547027587891 166.2228088378906 155.3516998291016 166.6161041259766 156.0276031494141 167.5115966796875 C 158.4638977050781 170.74169921875 164.9358062744141 179.3214111328125 167.4450073242188 191.2203063964844 C 168.8571014404297 197.9199066162109 168.7895965576172 204.6681060791016 167.2416076660156 211.2768096923828 C 165.3822021484375 219.2210998535156 161.3529052734375 227.0817108154297 155.264404296875 234.6444091796875 C 155.0124053955078 234.6300048828125 154.6398010253906 234.6237030029297 154.0727996826172 234.6138000488281 C 153.1448974609375 234.5985107421875 151.7436065673828 234.5850067138672 149.9085083007812 234.5742034912109 C 146.2356109619141 234.5526123046875 140.6961059570312 234.5427093505859 133.4448089599609 234.5427093505859 C 129.6233978271484 234.5427093505859 125.4996032714844 234.54541015625 121.2534027099609 234.5499114990234 C 125.5851058959961 233.6508026123047 129.3408050537109 232.1748046875 132.4773101806641 230.1318054199219 C 136.7658081054688 227.339111328125 139.9158020019531 223.4871063232422 141.8390960693359 218.6838073730469 C 144.3231048583984 212.4837036132812 144.2492980957031 206.0595092773438 143.7507019042969 201.7629089355469 C 143.2026062011719 197.0469055175781 141.9002990722656 193.1220092773438 140.9940032958984 192.1392059326172 C 140.7734985351562 191.8061981201172 139.8762054443359 190.5372009277344 135.9351043701172 185.0337066650391 C 131.533203125 178.8885040283203 124.3251037597656 168.8471984863281 114.5097045898438 155.1905975341797 C 113.7717056274414 154.1619110107422 113.3559036254883 153.5859069824219 113.3235015869141 153.5400085449219 L 112.9140014648438 152.9793090820312 L 112.5117034912109 153.54541015625 L 112.4972991943359 153.5661010742188 C 112.2039031982422 153.9792022705078 105.2316055297852 163.7901000976562 98.52390289306641 173.310302734375 C 94.69800567626953 178.7409057617188 91.66139984130859 183.0771026611328 89.49960327148438 186.1992034912109 C 88.22160339355469 188.0451049804688 87.23699951171875 189.4833068847656 86.57460021972656 190.4741973876953 C 85.89690399169922 191.4876098632812 85.59000396728516 191.9618988037109 85.47299957275391 192.2292022705078 C 84.45420074462891 193.4990997314453 83.00790405273438 197.1315002441406 82.25009918212891 201.5774993896484 C 81.55620574951172 205.6572113037109 81.22140502929688 211.7808074951172 83.56410217285156 217.7919006347656 C 85.35150146484375 222.3756103515625 88.42140197753906 226.1699981689453 92.69010162353516 229.0671081542969 C 96.38280487060547 231.5736083984375 100.9953002929688 233.4177093505859 106.4538040161133 234.5742034912109 C 88.66350555419922 234.6092987060547 72.28350067138672 234.6623992919922 70.07130432128906 234.6696014404297 C 69.63570404052734 234.0774078369141 68.26860046386719 232.1549987792969 66.67919921875 229.2489013671875 Z">
			</path>
		</svg>
</g>	
		
	
 
 </svg>
