<?xml version="1.0" encoding="UTF-8"?>

<svg xmlns="http://www.w3.org/2000/svg" xmlns:xlink="http://www.w3.org/1999/xlink" width="190" height="190" viewBox="0 0 266.248 511.632">
	<g id="fortune-telling" data-name="fortune-telling" >
	<path id="Union_6" d="M 100.2321014404297 511.6320190429688 L 100.2266998291016 511.6320190429688 C 72.96839904785156 511.6320190429688 57.56130218505859 511.5330200195312 54.43379974365234 511.3377075195312 C 52.01370239257812 511.1865234375 49.84920120239258 510.3108215332031 47.99880218505859 508.7349243164062 C 46.51830291748047 507.4739990234375 45.23490142822266 505.7649230957031 44.18370056152344 503.6544189453125 C 42.3927001953125 500.0570983886719 41.89500045776367 496.50390625 41.8905029296875 496.4688110351562 C 41.76180267333984 493.9065246582031 29.08080101013184 240.1443023681641 29.24100112915039 228.251708984375 C 29.3031005859375 223.5726013183594 30.28499984741211 220.2300109863281 32.15790176391602 218.3157043457031 C 33.61320114135742 216.8298034667969 35.14500045776367 216.7136993408203 35.58060073852539 216.7136993408203 C 35.64900207519531 216.7136993408203 35.6859016418457 216.7164001464844 35.6859016418457 216.7164001464844 C 35.87697982788086 216.7156219482422 38.11061859130859 216.7064514160156 41.95530319213867 216.6906280517578 L 0 58.26150131225586 L 9.972900390625 27.73350143432617 L 30.27780151367188 42.43770217895508 L 69.63480377197266 194.4647979736328 L 75.03538513183594 216.55419921875 C 76.50308990478516 216.5481262207031 77.98809814453125 216.5419769287109 79.50809478759766 216.5356903076172 L 74.26620483398438 192.4398040771484 L 80.43569946289062 25.29630088806152 L 95.02650451660156 1.781100034713745 L 104.2658996582031 20.15460014343262 L 97.32060241699219 35.97480010986328 L 91.66780853271484 216.4853210449219 C 93.32506561279297 216.4784545898438 95.01103973388672 216.4714660644531 96.70407104492188 216.4644317626953 L 102.7224044799805 38.67570114135742 L 113.9121017456055 7.42140007019043 L 132.4331970214844 36.07469940185547 L 132.4331970214844 56.81159973144531 L 118.6956024169922 79.18560028076172 L 118.6956024169922 216.3729705810547 C 120.4383773803711 216.3657073974609 122.1930618286133 216.3583984375 123.9444046020508 216.3510894775391 L 123.9444046020508 81.42750549316406 L 136.4652099609375 57.39030075073242 L 148.6395111083984 81.42750549316406 L 148.6395111083984 215.7300109863281 L 142.627685546875 216.2729339599609 C 145.9152526855469 216.2591400146484 149.1795043945312 216.2454376220703 152.4124755859375 216.2318267822266 L 152.1260986328125 79.56000518798828 L 138.1923065185547 52.66080093383789 L 138.1923065185547 33.39900207519531 L 131.2586975097656 24.92460060119629 L 144.3105010986328 0 L 163.1898040771484 27.95130157470703 L 177.8942718505859 216.1239929199219 C 179.6031188964844 216.1167144775391 181.2785797119141 216.1095733642578 182.9297332763672 216.1025238037109 L 169.4754028320312 27.31860160827637 L 162.9161987304688 19.38330078125 L 172.5192108154297 1.95930004119873 L 191.32470703125 27.31860160827637 L 200.310302734375 178.34130859375 L 191.4977264404297 216.0657501220703 C 193.0031585693359 216.0592498779297 194.4735717773438 216.0529022216797 195.9059600830078 216.0466918945312 L 238.1580047607422 48.82590103149414 L 258.5159912109375 27.44820022583008 L 266.2478942871094 64.17359924316406 L 227.2683715820312 216.0091857910156 C 230.6452941894531 216.330322265625 233.195556640625 217.4594421386719 234.86669921875 219.3777008056641 C 236.2302093505859 220.9437103271484 236.7279052734375 222.7518005371094 236.9052124023438 223.9920043945312 C 237.0969085693359 225.3375091552734 236.964599609375 226.3238983154297 236.9636993408203 226.3329010009766 C 236.9421081542969 226.9863128662109 234.8126983642578 292.3919982910156 232.3188018798828 358.3962097167969 C 230.8554077148438 397.1141967773438 229.5567016601562 428.4027099609375 228.4587097167969 451.3914184570312 C 227.0862121582031 480.12841796875 226.0242004394531 495.9072265625 225.30419921875 498.2886047363281 C 224.5833129882812 500.6690979003906 223.4817047119141 502.8363037109375 222.0299987792969 504.7308044433594 C 220.8690032958984 506.2463989257812 219.4821014404297 507.5901184082031 217.9080047607422 508.726806640625 C 215.2286987304688 510.6618041992188 212.9040069580078 511.3305053710938 212.8815002441406 511.3377075195312 C 210.1824035644531 511.3494262695312 146.2563018798828 511.6320190429688 100.2348022460938 511.6320190429688 Z M 53.49870300292969 486.410400390625 C 53.50230026245117 486.4437255859375 53.93970108032227 489.7377014160156 55.50480270385742 493.0632019042969 C 56.94930267333984 496.1331176757812 59.67630004882812 499.8591003417969 64.46970367431641 500.1750183105469 C 67.20840454101562 500.3568115234375 80.68590545654297 500.4486083984375 104.5260009765625 500.4486083984375 C 144.3464965820312 500.4486083984375 200.6640014648438 500.1867065429688 203.0418090820312 500.1759033203125 L 203.0661010742188 500.1750183105469 C 203.0859069824219 500.1696166992188 205.1072998046875 499.5585021972656 207.4626007080078 497.7593994140625 C 209.6262054443359 496.1061096191406 212.5044097900391 493.0866088867188 213.9318084716797 488.0942993164062 C 216.1422119140625 480.3659973144531 221.4027099609375 321.9246215820312 223.3710021972656 260.4240112304688 L 43.19370269775391 260.0721130371094 C 45.67770004272461 320.8077087402344 53.40510177612305 484.4340209960938 53.49870300292969 486.410400390625 Z M 44.98649978637695 228.9078063964844 C 43.34760284423828 230.6799011230469 42.4890022277832 233.7750091552734 42.43410110473633 238.1067047119141 C 42.41970062255859 239.2587127685547 42.52770233154297 242.8542022705078 42.73200225830078 248.3648986816406 L 223.7192993164062 249.460205078125 C 223.9730987548828 241.4376068115234 224.1207122802734 236.6622009277344 224.1305999755859 236.3310089111328 C 224.1351013183594 236.2923126220703 224.5959014892578 232.5060119628906 222.1425018310547 229.7115020751953 C 220.3794097900391 227.7027130126953 217.5750122070312 226.6838989257812 213.8076019287109 226.6838989257812 C 213.7626037597656 226.6838989257812 213.718505859375 226.6838989257812 213.672607421875 226.6838989257812 C 202.9815063476562 226.7532043457031 74.33550262451172 227.3139038085938 48.65489959716797 227.4255065917969 L 48.07170104980469 227.4282073974609 C 48.07080078125 227.4273071289062 48.03840255737305 227.4255065917969 47.97990036010742 227.4255065917969 C 47.59920120239258 227.4255065917969 46.25910186767578 227.5326080322266 44.98649978637695 228.9078063964844 Z M 109.8801040649414 444.1076965332031 C 102.6153030395508 441.0351257324219 96.09210205078125 436.6359252929688 90.49140167236328 431.0343017578125 C 84.88890075683594 425.4318237304688 80.48970031738281 418.9085998535156 77.41799926757812 411.6447143554688 C 74.23650360107422 404.1242980957031 72.62370300292969 396.1358947753906 72.62370300292969 387.9009094238281 C 72.62370300292969 379.6668090820312 74.23650360107422 371.6775207519531 77.41799926757812 364.1571044921875 C 80.4906005859375 356.8923034667969 84.88890075683594 350.3681945800781 90.49140167236328 344.7675170898438 C 96.09210205078125 339.1658935546875 102.6153030395508 334.7676086425781 109.8801040649414 331.6941223144531 C 117.4014053344727 328.5135192871094 125.3898010253906 326.9006958007812 133.6248016357422 326.9006958007812 C 141.8589019775391 326.9006958007812 149.8473052978516 328.5135192871094 157.3677062988281 331.6941223144531 C 164.6334075927734 334.7676086425781 171.1566009521484 339.1658935546875 176.7582092285156 344.7675170898438 C 182.3598022460938 350.3681945800781 186.7581024169922 356.8923034667969 189.8316040039062 364.1571044921875 C 193.01220703125 371.6775207519531 194.6240997314453 379.6668090820312 194.6240997314453 387.9009094238281 C 194.6240997314453 396.1358947753906 193.01220703125 404.1242980957031 189.8316040039062 411.6447143554688 C 186.7590026855469 418.9085998535156 182.3598022460938 425.4318237304688 176.7582092285156 431.0343017578125 C 171.1566009521484 436.6359252929688 164.6334075927734 441.0351257324219 157.3677062988281 444.1076965332031 C 149.8473052978516 447.2882995605469 141.8589019775391 448.901123046875 133.6248016357422 448.901123046875 C 125.3898010253906 448.901123046875 117.4014053344727 447.2882995605469 109.8801040649414 444.1076965332031 Z M 132.0471038818359 332.4456176757812 C 131.5422058105469 332.4456176757812 131.0238037109375 332.4546203613281 130.5063018798828 332.4717102050781 C 130.7033996582031 332.4951171875 130.7924957275391 332.5194091796875 130.7942962646484 332.5500183105469 C 130.7978973388672 332.61572265625 130.3821105957031 332.7156066894531 129.6927032470703 332.8803100585938 C 125.8659057617188 333.7947082519531 114.2226028442383 336.5775146484375 108.2880020141602 347.3135986328125 C 105.6681060791016 353.1573181152344 105.6716995239258 359.3186950683594 105.6744003295898 363.81689453125 L 105.6744003295898 364.2147216796875 C 106.2225036621094 373.1300964355469 111.7440032958984 381.888916015625 119.4129028320312 386.0090942382812 C 121.7160034179688 387.1053161621094 124.2747039794922 387.9369201660156 127.0179061889648 388.4804992675781 C 127.8810043334961 388.595703125 128.7657012939453 388.6614074707031 129.6468048095703 388.6766967773438 C 135.5742034912109 388.776611328125 140.7752990722656 389.7513122558594 145.1052093505859 391.5729064941406 C 150.5960998535156 393.8814086914062 154.6695098876953 397.5588073730469 157.2138061523438 402.5016174316406 C 159.4215087890625 405.9216003417969 160.5888061523438 409.5234069824219 160.5888061523438 412.9164123535156 C 161.2763977050781 419.4504089355469 159.7895965576172 426.3453063964844 156.5109100341797 431.8326110839844 C 153.8010101318359 436.3650207519531 148.5422973632812 442.1376037597656 138.8735961914062 443.8926086425781 C 137.5632019042969 444.1446228027344 136.6074066162109 444.2283020019531 136.1988067626953 444.2633972167969 L 136.1772003173828 444.2651977539062 C 136.0440063476562 444.2769165039062 136.0008087158203 444.280517578125 136.0008087158203 444.2841186523438 C 136.0026092529297 444.2886047363281 136.0709991455078 444.2913208007812 136.2348022460938 444.297607421875 C 136.4445037841797 444.3066101074219 136.7397003173828 444.3182983398438 137.1501007080078 444.3417053222656 C 137.1869964599609 444.3417053222656 142.6230010986328 443.672119140625 149.9355010986328 441.0036010742188 C 156.5964050292969 438.5754089355469 166.1940002441406 433.9467163085938 174.0888061523438 425.6883239746094 C 184.7106018066406 414.5805053710938 189.6867065429688 399.845703125 188.8821105957031 381.8916015625 C 185.7221984863281 351.35009765625 156.9645080566406 332.4447021484375 132.1325988769531 332.4447021484375 Z M 131.9732971191406 408.6405029296875 C 131.9643096923828 408.6423034667969 131.9544067382812 408.6432189941406 131.9463043212891 408.6441040039062 C 131.2821044921875 408.7268981933594 129.2633972167969 408.9797973632812 127.3914031982422 410.2470092773438 C 126.3150024414062 410.97509765625 125.4717025756836 411.9192199707031 124.8858032226562 413.0514221191406 C 124.1775054931641 414.4149169921875 123.8382034301758 416.0610046386719 123.8787002563477 417.9438171386719 L 123.8787002563477 417.9645080566406 L 123.8814010620117 417.9843139648438 C 124.1567993164062 420.7023010253906 125.8578033447266 422.377197265625 127.2366027832031 423.30419921875 C 128.8619995117188 424.397705078125 130.9734039306641 425.0502014160156 132.8832092285156 425.0502014160156 L 132.8903961181641 425.0502014160156 L 132.8957977294922 425.0502014160156 C 136.6056060791016 424.9593200683594 138.7476043701172 423.1197204589844 139.8924102783203 421.5924072265625 C 141.1218109130859 419.9481201171875 141.4764099121094 418.3326110839844 141.4907989501953 418.2642211914062 L 141.4953002929688 418.2498168945312 L 141.4971008300781 418.2344970703125 C 141.5187072753906 418.0887145996094 142.0200042724609 414.6165161132812 139.7565002441406 411.8355102539062 C 138.1652984619141 409.8807067871094 135.6336059570312 408.7953186035156 132.2297973632812 408.6099243164062 L 132.0192108154297 408.5982055664062 Z M 127.5156021118164 366.8894958496094 C 126.2250061035156 366.0219116210938 124.6338043212891 364.4577026367188 124.3782043457031 361.9341125488281 C 124.3098068237305 358.6356201171875 125.4168014526367 356.1885070800781 127.6713027954102 354.662109375 C 129.4452056884766 353.4606018066406 131.3739013671875 353.2194213867188 132.0075073242188 353.1401977539062 C 132.1244964599609 353.1257934570312 132.1947021484375 353.1168212890625 132.2028045654297 353.1087036132812 C 135.4589996337891 353.2860107421875 137.8692016601562 354.3102111816406 139.3686065673828 356.1506958007812 C 141.4871978759766 358.75439453125 141.0075073242188 362.126708984375 141.0021057128906 362.1600036621094 C 140.9994049072266 362.1762084960938 140.6565093994141 363.7359008789062 139.4918975830078 365.2929077148438 C 138.8061065673828 366.2082214355469 137.9745025634766 366.9443969726562 137.0187072753906 367.4817199707031 C 135.8253021240234 368.1531066894531 134.4338989257812 368.51220703125 132.8832092285156 368.5500183105469 C 131.0688018798828 368.5500183105469 129.0617980957031 367.9290161132812 127.5156021118164 366.8894958496094 Z M 54.10440063476562 108.9018020629883 L 49.30920028686523 30.28499984741211 L 59.36040115356445 0 L 75.71250152587891 24.39900016784668 L 70.69589996337891 182.9862060546875 L 54.10440063476562 108.9018020629883 Z M 196.8713989257812 26.62650108337402 L 188.3825988769531 15.91020011901855 L 199.4058074951172 0.8640000224113464 L 218.8647003173828 26.62650108337402 L 214.3701019287109 122.7357025146484 L 203.0445098876953 168.7095031738281 L 196.8713989257812 26.62650108337402 Z">
		</path>
	
	</g>
</svg>
