<?xml version="1.0" encoding="UTF-8"?>
<svg xmlns="http://www.w3.org/2000/svg"  width="124" height="124" viewBox="0 0 36 22.841">
  <g id="temple3" data-name="temple3" >
  
  
  	<svg class="temple3" viewBox="0 0 555 352.841">
		<path id="temple3" d="M 243.4283905029297 352.8412170410156 L 243.4229888916016 352.8412170410156 L 92.85549926757812 352.8352355957031 L 92.85549926757812 219.6409149169922 L 92.81687164306641 219.6452484130859 C 90.49352264404297 219.5604705810547 69.50367736816406 218.5975341796875 48.24320220947266 210.9951324462891 C 35.11638641357422 206.3011627197266 24.45371246337891 200.0299530029297 16.5512866973877 192.3556976318359 C 6.673027992248535 182.7628936767578 1.104388236999512 170.938232421875 1.885986421257257e-06 157.2101440429688 C 15.77447032928467 170.6824188232422 40.18153762817383 177.1325378417969 57.88033676147461 180.1703643798828 C 77.06333160400391 183.4629058837891 92.69985198974609 183.5677642822266 92.85549926757812 183.5684356689453 L 92.85549926757812 132.2336120605469 L 92.82052612304688 132.2342681884766 C 91.52964782714844 132.0655670166016 79.83220672607422 130.4239501953125 66.80002593994141 124.8007278442383 C 58.69375991821289 121.3027267456055 51.60666656494141 116.9628982543945 45.73567199707031 111.9017028808594 C 38.39666748046875 105.5748901367188 32.94747543334961 98.09642028808594 29.53960800170898 89.67404174804688 C 30.26273536682129 89.797119140625 31.56711196899414 90.15256500244141 33.37238693237305 90.64450073242188 C 40.3607177734375 92.54920959472656 54.89765930175781 96.51125335693359 71.05060577392578 96.51125335693359 C 92.2108154296875 96.51125335693359 108.9226913452148 89.78340911865234 120.7220764160156 76.51451110839844 C 135.0293579101562 60.42531204223633 142.0149078369141 34.68210983276367 141.4845733642578 7.943730452097952e-06 C 142.4673309326172 0.8901132941246033 156.1541748046875 9.885686874389648 180.2881469726562 18.68892097473145 C 201.4994812011719 26.42605209350586 235.6038970947266 35.64912033081055 277.6202392578125 35.64912033081055 C 326.0317687988281 35.64912033081055 374.4762573242188 23.65499687194824 421.6080322265625 7.943730452097952e-06 C 420.1636352539062 35.55842590332031 426.38037109375 61.62610244750977 440.0931701660156 77.48458862304688 C 450.9036254882812 89.98661041259766 466.5854797363281 96.32566833496094 486.7029724121094 96.32566833496094 C 500.7173767089844 96.32566833496094 514.2159423828125 93.28505706787109 523.1482543945312 91.27301025390625 C 526.1830444335938 90.58933258056641 528.7959594726562 90.00078582763672 530.7756958007812 89.67404174804688 C 527.2998657226562 99.28823852539062 521.5081787109375 107.5016326904297 513.5673828125 114.0942535400391 C 507.2113342285156 119.3711700439453 499.4694213867188 123.6290588378906 490.5568237304688 126.7495727539062 C 475.3906555175781 132.0596313476562 461.8933715820312 132.2324066162109 461.7589416503906 132.2335357666016 L 461.7589416503906 183.5683441162109 C 462.4385070800781 183.5288543701172 531.340576171875 179.2571716308594 554.9999389648438 158.0845184326172 C 540.473388671875 214.0006713867188 490.8807678222656 220.0379638671875 470.2335205078125 220.0384979248047 C 465.0606384277344 220.03857421875 461.7904052734375 219.6448974609375 461.7589416503906 219.6408386230469 L 461.7589416503906 352.8291931152344 L 316.2085266113281 352.8352355957031 C 316.2149047851562 348.19775390625 316.3363037109375 249.1289367675781 316.2079467773438 248.7776947021484 C 305.1763610839844 227.8823089599609 293.2344970703125 217.287353515625 280.7139587402344 217.287353515625 C 259.3967590332031 217.287353515625 243.5856018066406 248.4635162353516 243.4283905029297 248.7785186767578 L 243.4283905029297 352.8352355957031 L 243.4283905029297 352.8412170410156 Z M 395.602294921875 249.2102508544922 L 395.602294921875 309.962646484375 L 424.5513000488281 309.9625854492188 L 424.5513000488281 249.2102508544922 L 395.602294921875 249.2102508544922 Z M 341.3650207519531 249.2102508544922 L 341.3650207519531 309.962646484375 L 370.3188781738281 309.9625854492188 L 370.3188781738281 249.2102508544922 L 341.3650207519531 249.2102508544922 Z M 184.0856323242188 249.2102508544922 L 184.0856323242188 309.962646484375 L 213.0492858886719 309.9625854492188 L 213.0492858886719 249.2102508544922 L 184.0856323242188 249.2102508544922 Z M 129.8580932617188 249.2102508544922 L 129.8580932617188 309.962646484375 L 158.8119964599609 309.9625854492188 L 158.8119964599609 249.2102508544922 L 129.8580932617188 249.2102508544922 Z M 427.9142761230469 142.5145263671875 L 427.9142761230469 142.5146026611328 L 427.9142761230469 173.1200714111328 L 447.6821899414062 173.1200714111328 L 447.6821899414062 153.4431457519531 L 447.6821899414062 142.5146026611328 L 427.9142761230469 142.5145263671875 Z M 394.5284729003906 142.5145263671875 L 394.5284729003906 142.5146026611328 L 394.5284729003906 173.1200714111328 L 414.2963562011719 173.1200714111328 L 414.2963562011719 153.4431457519531 L 414.2963562011719 142.5146026611328 L 394.5284729003906 142.5145263671875 Z M 361.9870910644531 142.5145263671875 L 361.9870910644531 142.5146026611328 L 361.9870910644531 173.1200714111328 L 381.7647399902344 173.1200714111328 L 381.7647399902344 153.4431457519531 L 381.7647399902344 142.5146026611328 L 361.9870910644531 142.5145263671875 Z M 321.9436340332031 142.5145263671875 L 321.9436340332031 142.5146026611328 L 321.9436340332031 173.1200714111328 L 341.7115173339844 173.1200714111328 L 341.7115173339844 153.4431457519531 L 341.7115173339844 142.5146026611328 L 321.9436340332031 142.5145263671875 Z M 285.6487731933594 142.5145263671875 L 285.6487731933594 142.5146026611328 L 285.6487731933594 173.1200714111328 L 305.4215698242188 173.1200714111328 L 305.4215698242188 153.4431457519531 L 305.4215698242188 142.5146026611328 L 285.6487731933594 142.5145263671875 Z M 249.3588256835938 142.5145263671875 L 249.3588256835938 142.5146026611328 L 249.3588256835938 173.1200714111328 L 269.126708984375 173.1200714111328 L 269.126708984375 153.4431457519531 L 269.126708984375 142.5146026611328 L 249.3588256835938 142.5145263671875 Z M 213.0639190673828 142.5145263671875 L 213.0639190673828 142.5146026611328 L 213.0639190673828 173.1200714111328 L 232.8318176269531 173.1200714111328 L 232.8318176269531 153.4431457519531 L 232.8318176269531 142.5146026611328 L 213.0639190673828 142.5145263671875 Z M 173.0155944824219 142.5145263671875 L 173.0155944824219 142.5146026611328 L 173.0155944824219 173.1200714111328 L 192.7883911132812 173.1200714111328 L 192.7883911132812 153.4431457519531 L 192.7883911132812 142.5146026611328 L 173.0155944824219 142.5145263671875 Z M 140.4790802001953 142.5145263671875 L 140.4790802001953 142.5146026611328 L 140.4790802001953 173.1200714111328 L 160.2470092773438 173.1200714111328 L 160.2470092773438 153.4431457519531 L 160.2470092773438 142.5146026611328 L 140.4790802001953 142.5145263671875 Z M 107.9425582885742 142.5145263671875 L 107.9425582885742 142.5146026611328 L 107.9425582885742 173.1200714111328 L 127.7104949951172 173.1200714111328 L 127.7104949951172 153.4431457519531 L 127.7104949951172 142.5146026611328 L 107.9425582885742 142.5145263671875 Z">
		</path>
	</svg>

 
  </g>
</svg>
				
