<?xml version="1.0" encoding="UTF-8"?>
<svg xmlns="http://www.w3.org/2000/svg"  width="1800" height="1800"  viewBox="0 0 36 22.841">
  <g id="Subtraction_1" data-name="Subtraction_1" >
  
  	<path d="M 15.78995323181152 22.84120941162109 L 15.78960227966309 22.84120941162109 L 6.023061752319336 22.8408203125 L 6.023061752319336 14.21847724914551 L 6.020555973052979 14.21875858306885 C 5.869852066040039 14.21327018737793 4.50834846496582 14.15093326568604 3.129290819168091 13.65879249572754 C 2.27782154083252 13.3549280166626 1.586188554763794 12.94896125793457 1.073598861694336 12.45216751098633 C 0.432846873998642 11.83117580413818 0.07163776457309723 11.06570720672607 1.885986421257257e-06 10.17701721191406 C 1.023210644721985 11.04914569854736 2.606371879577637 11.46669578552246 3.754402160644531 11.66334915161133 C 4.99870491027832 11.87649154663086 6.012965679168701 11.88327980041504 6.023061752319336 11.88332366943359 L 6.023061752319336 8.560159683227539 L 6.020792961120605 8.560202598571777 C 5.937060356140137 8.549281120300293 5.17830753326416 8.443011283874512 4.332976818084717 8.078991889953613 C 3.807164669036865 7.852548599243164 3.347461223602295 7.571609973907471 2.96664023399353 7.243972778320312 C 2.490596532821655 6.834405422210693 2.13713526725769 6.350286483764648 1.916084766387939 5.805063247680664 C 1.962990164756775 5.81303071975708 2.047598361968994 5.836040496826172 2.164697170257568 5.867886066436768 C 2.61799430847168 5.991187572479248 3.560931205749512 6.247670650482178 4.608689785003662 6.247670650482178 C 5.981244087219238 6.247670650482178 7.065258026123047 5.812142848968506 7.830623626708984 4.953179836273193 C 8.758663177490234 3.911643981933594 9.211779594421387 2.245156288146973 9.177380561828613 7.943725904624444e-06 C 9.241127014160156 0.05762898176908493 10.12892150878906 0.6399580836296082 11.69436931610107 1.20983612537384 C 13.07023906707764 1.710699915885925 15.28241729736328 2.307755708694458 18.00780296325684 2.307755708694458 C 21.14801025390625 2.307755708694458 24.29035568237305 1.531315445899963 27.34755325317383 7.943725904624444e-06 C 27.25386047363281 2.301884651184082 27.65710830688477 3.989377498626709 28.54658889770508 5.01597785949707 C 29.24781036376953 5.825297355651855 30.26501083374023 6.235656261444092 31.5699291229248 6.235656261444092 C 32.47896957397461 6.235656261444092 33.35455322265625 6.038822650909424 33.9339485168457 5.908572673797607 C 34.13079833984375 5.864314556121826 34.30028533935547 5.826214790344238 34.4286994934082 5.805063247680664 C 34.20323944091797 6.427438735961914 33.82756423950195 6.959134101867676 33.31248474121094 7.385908126831055 C 32.90019989013672 7.727509498596191 32.39802169799805 8.003144264221191 31.81990814208984 8.205150604248047 C 30.83615875244141 8.548896789550781 29.96065711975098 8.560081481933594 29.95193481445312 8.560154914855957 L 29.95193481445312 11.8833179473877 C 29.99601745605469 11.88076114654541 34.4653434753418 11.60423374176025 36.00000381469727 10.23362064361572 C 35.0577392578125 13.85335636138916 31.84091949462891 14.24417972564697 30.50164031982422 14.24421405792236 C 30.16609954833984 14.24421882629395 29.9539794921875 14.21873474121094 29.95193481445312 14.21847152709961 L 29.95193481445312 22.84043121337891 L 20.51082611083984 22.8408203125 C 20.51124000549316 22.54061317443848 20.51911544799805 16.12738609313965 20.51078987121582 16.10464859008789 C 19.79522705078125 14.75198364257812 19.0206184387207 14.06611919403076 18.20847511291504 14.06611919403076 C 16.82573890686035 14.06611919403076 15.80014991760254 16.08431053161621 15.78995323181152 16.10470199584961 L 15.78995323181152 22.8408203125 L 15.78995323181152 22.84120941162109 Z M 25.66069221496582 16.13265037536621 L 25.66069221496582 20.06546211242676 L 27.53846740722656 20.06545639038086 L 27.53846740722656 16.13265037536621 L 25.66069221496582 16.13265037536621 Z M 22.14259910583496 16.13265037536621 L 22.14259910583496 20.06546211242676 L 24.02068710327148 20.06545639038086 L 24.02068710327148 16.13265037536621 L 22.14259910583496 16.13265037536621 Z M 11.94069194793701 16.13265037536621 L 11.94069194793701 20.06546211242676 L 13.81941604614258 20.06545639038086 L 13.81941604614258 16.13265037536621 L 11.94069194793701 16.13265037536621 Z M 8.423230171203613 16.13265037536621 L 8.423230171203613 20.06546211242676 L 10.30132102966309 20.06545639038086 L 10.30132102966309 16.13265037536621 L 8.423230171203613 16.13265037536621 Z M 27.75660514831543 9.225695610046387 L 27.75660514831543 9.225700378417969 L 27.75660514831543 11.20694732666016 L 29.03885078430176 11.20694732666016 L 29.03885078430176 9.933160781860352 L 29.03885078430176 9.225700378417969 L 27.75660514831543 9.225695610046387 Z M 25.59103965759277 9.225695610046387 L 25.59103965759277 9.225700378417969 L 25.59103965759277 11.20694732666016 L 26.87328147888184 11.20694732666016 L 26.87328147888184 9.933160781860352 L 26.87328147888184 9.225700378417969 L 25.59103965759277 9.225695610046387 Z M 23.48024749755859 9.225695610046387 L 23.48024749755859 9.225700378417969 L 23.48024749755859 11.20694732666016 L 24.76312065124512 11.20694732666016 L 24.76312065124512 9.933160781860352 L 24.76312065124512 9.225700378417969 L 23.48024749755859 9.225695610046387 Z M 20.88283348083496 9.225695610046387 L 20.88283348083496 9.225700378417969 L 20.88283348083496 11.20694732666016 L 22.16507530212402 11.20694732666016 L 22.16507530212402 9.933160781860352 L 22.16507530212402 9.225700378417969 L 20.88283348083496 9.225695610046387 Z M 18.52857208251953 9.225695610046387 L 18.52857208251953 9.225700378417969 L 18.52857208251953 11.20694732666016 L 19.81113243103027 11.20694732666016 L 19.81113243103027 9.933160781860352 L 19.81113243103027 9.225700378417969 L 18.52857208251953 9.225695610046387 Z M 16.17462921142578 9.225695610046387 L 16.17462921142578 9.225700378417969 L 16.17462921142578 11.20694732666016 L 17.45687103271484 11.20694732666016 L 17.45687103271484 9.933160781860352 L 17.45687103271484 9.225700378417969 L 16.17462921142578 9.225695610046387 Z M 13.8203649520874 9.225695610046387 L 13.8203649520874 9.225700378417969 L 13.8203649520874 11.20694732666016 L 15.10260677337646 11.20694732666016 L 15.10260677337646 9.933160781860352 L 15.10260677337646 9.225700378417969 L 13.8203649520874 9.225695610046387 Z M 11.22263526916504 9.225695610046387 L 11.22263526916504 9.225700378417969 L 11.22263526916504 11.20694732666016 L 12.50519561767578 11.20694732666016 L 12.50519561767578 9.933160781860352 L 12.50519561767578 9.225700378417969 L 11.22263526916504 9.225695610046387 Z M 9.11215877532959 9.225695610046387 L 9.11215877532959 9.225700378417969 L 9.11215877532959 11.20694732666016 L 10.39440250396729 11.20694732666016 L 10.39440250396729 9.933160781860352 L 10.39440250396729 9.225700378417969 L 9.11215877532959 9.225695610046387 Z M 7.001681804656982 9.225695610046387 L 7.001681804656982 9.225700378417969 L 7.001681804656982 11.20694732666016 L 8.283926010131836 11.20694732666016 L 8.283926010131836 9.933160781860352 L 8.283926010131836 9.225700378417969 L 7.001681804656982 9.225695610046387 Z">
	</path>
 
  </g>
</svg>
				
